<svg xmlns="http://www.w3.org/2000/svg" width="256" height="320" viewBox="0 0 256 320"><title>companion.moru.canonical.side</title><metadata>source=design/source/companion/moru/moru-a2-vector-source-master-v1.svg;approval=production_export_candidate;view=side</metadata><defs><style>
.ink{stroke:#214F3B;stroke-width:5;stroke-linecap:round;stroke-linejoin:round}.thin{stroke:#214F3B;stroke-width:3;stroke-linecap:round;stroke-linejoin:round}
.bodyLight{fill:#F8E5BF}.bodyDusk{fill:#EBC28F}.bodyDark{fill:#B98E67}.leaf{fill:#6B8F7A}.leafLight{fill:#7FA48B}.leafDusk{fill:#71896D}.leafDark{fill:#57736D}
.scarf{fill:#6B8F7A}.scarfDusk{fill:#7A775C}.scarfDark{fill:#405F59}.bag{fill:#8D6A43}.bagDark{fill:#5B493D}
.cheek{fill:#F1A68A}.eye{fill:#1A1F1C}.mouth{fill:none;stroke:#1A1F1C;stroke-width:4;stroke-linecap:round}
</style></defs><g transform="translate(128 175) scale(.78)"><path d="M-18-92C46-90 80-42 74 18C68 73 38 105-7 105C-48 105-72 68-71 11C-70-45-46-86-18-92Z" fill="#F8E5BF" class="ink"/>
<path d="M-12-100C-42-128-47-158-30-179C2-169 18-145 10-112Z" fill="#7FA48B" class="ink"/>
<path d="M4-103C37-119 62-103 69-76C43-60 18-67 4-91Z" fill="#6B8F7A" class="ink" transform="rotate(-32 4 -103)"/>
<path d="M-49 15Q0 31 49 15L43 47Q0 38-42 47Z" fill="#6B8F7A" class="ink"/>
<path d="M38 31C65 30 78 48 72 73C68 91 55 98 40 91L36 47Z" fill="#8D6A43" class="ink"/>
<ellipse cx="28" cy="-18" rx="8" ry="11" class="eye"/><path class="mouth" d="M26 9Q34 14 41 8"/>
<ellipse cx="18" cy="108" rx="24" ry="12" fill="#8D6A43" class="ink"/></g></svg>