<svg xmlns="http://www.w3.org/2000/svg" width="256" height="320" viewBox="0 0 256 320"><title>lighting.luca.dark</title><metadata>source=design/source/companion/luca/luca-canonical-source-master-v1.svg;approval=production_export_candidate;layer=lighting</metadata><defs><style>
.ink{fill:#1A1F1C}.outline{stroke:#24323A;stroke-width:5;stroke-linecap:round;stroke-linejoin:round}
.fur{fill:#D9E1E5;stroke:#24323A;stroke-width:5}.darkfur{fill:#4A5962;stroke:#24323A;stroke-width:5}
.cream{fill:#F7E7B8;stroke:#24323A;stroke-width:5}.scarf{fill:#E69A3D;stroke:#24323A;stroke-width:5}
.cheek{fill:#F1A68A}
</style></defs><g transform="translate(128 170) scale(.78)"><path d="M-58-82L-78-170L-20-122Z" fill="#344049" stroke="#24323A" stroke-width="5"/><path d="M58-82L78-170L20-122Z" fill="#344049" stroke="#24323A" stroke-width="5"/>
<ellipse cx="0" cy="-55" rx="72" ry="66" fill="#83919A" stroke="#24323A" stroke-width="5"/><path d="M-46-66Q0-100 46-66Q36-24 0-18Q-36-24-46-66Z" fill="#C49F73" stroke="#24323A" stroke-width="5"/>
<ellipse cx="0" cy="55" rx="62" ry="84" fill="#344049" stroke="#24323A" stroke-width="5"/><path d="M-60 5Q0 30 60 5L52 38Q0 28-52 38Z" fill="#A96D32" stroke="#24323A" stroke-width="5"/>
<ellipse cx="-34" cy="132" rx="24" ry="16" fill="#83919A" stroke="#24323A" stroke-width="5"/><ellipse cx="34" cy="132" rx="24" ry="16" fill="#83919A" stroke="#24323A" stroke-width="5"/>
<path d="M56 76Q102 86 90 128Q76 145 58 122" fill="none" stroke="#24323A" stroke-width="5" stroke-linecap="round"/></g></svg>